<?xml version="1.0" encoding="UTF-8"?>
<svg width="88px" height="120px" viewBox="0 0 88 120" version="1.1" xmlns="http://www.w3.org/2000/svg" xmlns:xlink="http://www.w3.org/1999/xlink">
    <!-- Generator: Sketch 50.2 (55047) - http://www.bohemiancoding.com/sketch -->
    <title>Group 21</title>
    <desc>Created with Sketch.</desc>
    <defs>
        <path d="M0.439199974,8.4135995 C0.439199974,8.4135995 20.5247988,32.759998 32.901598,29.1087983 C45.2775973,25.4559985 44.8719973,21.8039987 52.5815969,23.0215986 C60.2903964,24.2391986 71.8559957,17.7463989 72.4639957,12.4711993 C73.0727956,7.19679957 57.4511966,1.10959993 57.4511966,1.10959993 L12.8159992,0.0951999943" id="path-1"></path>
        <path d="M0.439199974,8.4135995 C0.439199974,8.4135995 20.5247988,32.759998 32.901598,29.1087983 C45.2775973,25.4559985 44.8719973,21.8039987 52.5815969,23.0215986 C60.2903964,24.2391986 71.8559957,17.7463989 72.4639957,12.4711993 C73.0727956,7.19679957 57.4511966,1.10959993 57.4511966,1.10959993 L12.8159992,0.0951999943" id="path-3"></path>
        <polygon id="path-5" points="0.758179973 0.325599981 79.9782813 0.325599981 79.9782813 79.7815009 0.758179973 79.7815009"></polygon>
    </defs>
    <g id="Page-1" stroke="none" stroke-width="1" fill="none" fill-rule="evenodd">
        <g id="Artboard-Copy-3" transform="translate(-520.000000, -813.000000)">
            <g id="Group-21" transform="translate(520.900003, 812.900004)">
                <g id="Group-5" transform="translate(0.000000, 53.599997)" fill="#1080C4">
                    <path d="M39.3697577,12.0054393 L61.2401563,64.8534361 C61.5561563,65.6174361 62.6561563,65.5606361 62.8929563,64.7686361 L68.0937559,47.3270372 C68.2473559,46.8118372 68.8233559,46.5542372 69.3097559,46.7838372 L85.6801549,54.5142368 C86.4129548,54.8606367 87.1833548,54.1134368 86.8601548,53.3710368 L63.9625562,0.703039958 C63.7657562,0.251039985 63.2361562,0.0494399971 62.7889563,0.255839985 L39.8129576,10.8726394 C39.3857577,11.0702393 39.1897577,11.5702393 39.3697577,12.0054393" id="Fill-1"></path>
                    <path d="M47.4751972,12.4038393 L25.7023985,65.0158361 C25.3615985,65.8382361 24.1775986,65.7774361 23.9231986,64.9246361 L18.7983989,47.7406372 C18.6335989,47.1862372 18.0127989,46.9086372 17.489599,47.1558372 L1.35279992,54.7766367 C0.563199966,55.1494367 -0.266399984,54.3446368 0.0815999951,53.5446368 L22.8799986,1.10463993 C23.0919986,0.618239963 23.6615986,0.401439976 24.1439986,0.623839963 L46.9983972,11.1838393 C47.4583972,11.3966393 47.6695972,11.9350393 47.4751972,12.4038393" id="Fill-3"></path>
                </g>
                <g id="Group-12" transform="translate(8.000000, 58.399997)">
                    <g id="Group-8">
                        <mask id="mask-2" fill="white">
                            <use xlink:href="#path-1"></use>
                        </mask>
                        <g id="Clip-7"></g>
                        <path d="M31.3697581,7.20543957 L53.2401568,60.0534364 C53.5561568,60.8174364 54.6561567,60.7606364 54.8929567,59.9686364 L60.0937564,42.5270375 C60.2473564,42.0118375 60.8233564,41.7542375 61.3097563,41.9838375 L77.6801554,49.714237 C78.4129553,50.060637 79.1833553,49.3134371 78.8601553,48.5710371 L55.9625567,-4.09695976 C55.7657567,-4.54895973 55.2361567,-4.75055972 54.7889567,-4.54415973 L31.8129581,6.07263964 C31.3857581,6.27023963 31.1897581,6.7702396 31.3697581,7.20543957" id="Fill-6" fill="#1173A4" mask="url(#mask-2)"></path>
                    </g>
                    <g id="Group-11">
                        <mask id="mask-4" fill="white">
                            <use xlink:href="#path-3"></use>
                        </mask>
                        <g id="Clip-10"></g>
                        <path d="M39.4751976,7.60383955 L17.7023989,60.2158364 C17.361599,61.0382364 16.177599,60.9774364 15.9231991,60.1246364 L10.7983994,42.9406374 C10.6335994,42.3862375 10.0127994,42.1086375 9.48959943,42.3558375 L-6.6471996,49.976637 C-7.43679956,50.349437 -8.26639951,49.544637 -7.91839953,48.7446371 L14.8799991,-3.69535978 C15.0919991,-4.18175975 15.6615991,-4.39855974 16.143999,-4.17615975 L38.9983977,6.38383962 C39.4583976,6.59663961 39.6695976,7.13503957 39.4751976,7.60383955" id="Fill-9" fill="#1173A4" mask="url(#mask-4)"></path>
                    </g>
                </g>
                <g id="Group-22" transform="translate(2.400000, 0.000000)">
                    <path d="M9.91663941,39.9421576 C9.91663941,23.1533586 23.5262386,9.54295943 40.3150376,9.54295943 C57.1030366,9.54295943 70.7134358,23.1533586 70.7134358,39.9421576 C70.7134358,56.7309566 57.1030366,70.3405558 40.3150376,70.3405558 C23.5262386,70.3405558 9.91663941,56.7309566 9.91663941,39.9421576" id="Fill-13" fill="#5EC6CA"></path>
                    <g id="Group-17">
                        <mask id="mask-6" fill="white">
                            <use xlink:href="#path-5"></use>
                        </mask>
                        <g id="Clip-16"></g>
                        <path d="M32.930638,67.9698359 C17.388239,63.8770362 8.11143952,47.9602371 12.2058393,32.4234381 C16.297039,16.885039 32.2146381,7.60743955 47.7538372,11.6994393 C63.2922362,15.7938391 72.5698357,31.7082381 68.4754359,47.2490372 C64.3810362,62.7866363 48.4698371,72.0658357 32.930638,67.9698359 M75.4386355,35.0650379 C74.6746355,27.3842384 78.2042353,25.2154385 75.3122355,19.4458388 C72.4186357,13.6786392 67.339436,15.8138391 61.7866363,11.6426393 C56.2322366,7.47463955 58.0578365,2.38023986 50.653037,0.689839959 C43.2466374,-0.997359941 43.0690374,3.66343978 35.5714379,4.73783972 C28.0738383,5.81303965 25.9810385,0.992239941 19.9546388,4.86423971 C13.9282392,8.73543948 17.9434389,10.6482394 12.1498393,18.3906389 C6.35703962,26.1338384 3.19463981,21.9378387 1.19463993,29.5202382 C-0.800559952,37.1066378 4.65863972,37.2354378 5.24183969,44.6042373 C5.82903965,51.9746369 1.26823992,53.0866368 5.36903968,60.2218364 C9.47063944,67.355436 12.8666392,62.6858363 18.8962389,68.0250359 C24.9250385,73.3682356 20.3050388,76.1570355 30.0274382,78.9810353 C39.7474376,81.8034351 36.9962378,76.3666354 45.1122373,74.9354355 C53.2274368,73.4986356 53.5282368,79.1546353 60.7298364,74.8090355 C67.927436,70.4602358 64.2994362,67.077036 68.5330359,61.2794363 C72.7658357,55.4826367 77.3562354,58.2202365 79.4858353,50.149837 C81.6138351,42.0730375 76.2026355,42.7434375 75.4386355,35.0650379" id="Fill-15" fill="#5EC6CA" mask="url(#mask-6)"></path>
                    </g>
                    <path d="M16.235359,40.0116776 C16.235359,25.9364785 27.6457584,14.5260791 41.7201575,14.5260791 C55.7961567,14.5260791 67.206556,25.9364785 67.206556,40.0116776 C67.206556,54.0868768 55.7961567,65.4972761 41.7201575,65.4972761 C27.6457584,65.4972761 16.235359,54.0868768 16.235359,40.0116776" id="Fill-18" fill="#07B4B0"></path>
                    <path d="M27.6376784,39.4214377 C27.6376784,31.6438381 33.943278,25.3382385 41.7208775,25.3382385 C49.498477,25.3382385 55.8032767,31.6438381 55.8032767,39.4214377 C55.8032767,47.1990372 49.498477,53.5038368 41.7208775,53.5038368 C33.943278,53.5038368 27.6376784,47.1990372 27.6376784,39.4214377" id="Fill-20" fill="#FFCE44"></path>
                </g>
            </g>
        </g>
    </g>
</svg>