<?xml version="1.0" encoding="UTF-8"?>
<svg width="93px" height="112px" viewBox="0 0 93 112" version="1.1" xmlns="http://www.w3.org/2000/svg" xmlns:xlink="http://www.w3.org/1999/xlink">
    <!-- Generator: Sketch 50.2 (55047) - http://www.bohemiancoding.com/sketch -->
    <title>Confidential</title>
    <desc>Created with Sketch.</desc>
    <defs>
        <polygon id="path-1" points="0 0.325439981 91.5672179 0.325439981 91.5672179 111.40357 0 111.40357"></polygon>
        <polygon id="path-3" points="0.215199987 0.384799977 0.215199987 139.999992 56.7583966 52.6735969 56.7583966 21.0719987"></polygon>
    </defs>
    <g id="Page-1" stroke="none" stroke-width="1" fill="none" fill-rule="evenodd">
        <g id="Artboard-Copy-3" transform="translate(-185.000000, -822.000000)">
            <g id="Confidential" transform="translate(185.800003, 810.500004)">
                <g id="Group-3" transform="translate(0.000000, 11.199999)">
                    <mask id="mask-2" fill="white">
                        <use xlink:href="#path-1"></use>
                    </mask>
                    <g id="Clip-2"></g>
                    <path d="M46.8256772,1.43583991 C46.8256772,1.43583991 63.9944762,18.7982389 90.7760746,21.0614387 C90.7760746,21.0614387 97.6888742,53.6430368 70.6464758,87.7558348 C67.407276,91.8430345 63.3744762,96.3254343 59.1808765,100.844634 C56.3224766,103.926234 54.9408767,104.854234 51.7376769,107.653434 L48.3872771,110.307833 C48.1448771,110.487033 46.7776772,111.375033 45.8992773,111.402233 C44.8568773,111.435033 43.8688774,110.855033 43.5752774,110.651833 L40.0608776,107.886234 C36.7992778,105.035034 34.9072779,103.634234 31.9176781,100.519034 C27.8296783,96.2582343 24.3304785,92.3462345 21.3816787,88.4622347 C-5.17591969,53.4862368 0.51127997,21.2198387 0.51127997,21.2198387 C27.2928784,18.9566389 44.2240774,1.56623991 44.2240774,1.56623991 L45.6816773,0.325439981 L46.8256772,1.43583991 Z" id="Fill-1" fill="#5EC6CA" mask="url(#mask-2)"></path>
                </g>
                <g id="Group-6" transform="translate(45.599997, 0.000000)">
                    <mask id="mask-4" fill="white">
                        <use xlink:href="#path-3"></use>
                    </mask>
                    <g id="Clip-5"></g>
                    <path d="M1.22567993,12.6358392 C1.22567993,12.6358392 18.3944789,29.9982382 45.1760773,32.2614381 C45.1760773,32.2614381 52.0888769,64.8430361 25.0464785,98.9558341 C21.8072787,103.043034 17.7744789,107.525434 13.5808792,112.044633 C10.7224794,115.126233 9.34087944,116.054233 6.13767963,118.853433 L2.78727983,121.507833 C2.54487985,121.687033 1.17767993,122.575033 0.299279982,122.602233 C-0.743119956,122.635033 -1.7311199,122.055033 -2.02471988,121.851833 L-5.53911967,119.086233 C-8.80071948,116.235033 -10.6927194,114.834233 -13.6823192,111.719033 C-17.7703189,107.458234 -21.2695187,103.546234 -24.2183186,99.6622341 C-50.775917,64.6862361 -45.0887173,32.4198381 -45.0887173,32.4198381 C-18.3071189,30.1566382 -1.37591992,12.7662392 -1.37591992,12.7662392 L0.0816799951,11.5254393 L1.22567993,12.6358392 Z" id="Fill-4" fill="#07B4B0" mask="url(#mask-4)"></path>
                </g>
                <g id="Group-11" transform="translate(32.799998, 50.399997)">
                    <polygon id="Fill-7" fill="#1080C4" points="5.40927968 8.21399951 5.25087969 25.6547985 11.2756793 31.3627981 19.9956788 29.6187982 18.8868789 19.7883988 20.6300788 10.1163994 18.4108789 4.88439971 13.4948792 2.18839987 9.21487945 3.93239977"></polygon>
                    <path d="M18.9944789,14.5424791 L7.97367952,14.5424791 L7.97367952,9.68007942 C7.97367952,6.6416796 10.4440794,4.16967975 13.4832792,4.16967975 C16.522479,4.16967975 18.9944789,6.6416796 18.9944789,9.68007942 L18.9944789,14.5424791 Z M15.5504791,24.2672786 L15.5504791,27.4280784 C15.5504791,28.5624783 14.6184791,29.4944782 13.4832792,29.4944782 C12.3488793,29.4944782 11.4168793,28.5624783 11.4168793,27.4280784 L11.4168793,24.2672786 C10.8096794,23.7000786 10.4048794,22.8896786 10.4048794,21.9984787 C10.4048794,20.2960788 11.7816793,18.9184789 13.4832792,18.9184789 C15.1856791,18.9184789 16.563279,20.2960788 16.563279,21.9984787 C16.563279,22.9304786 16.158479,23.7000786 15.5504791,24.2672786 Z M24.9112785,14.5424791 L23.1272786,14.5424791 L23.1272786,9.68007942 C23.0872786,4.37207974 18.7920789,0.0360799978 13.4832792,0.0360799978 C8.17607951,0.0360799978 3.88007977,4.37207974 3.88007977,9.68007942 L3.88007977,14.5424791 L2.09767987,14.5424791 C0.963279943,14.5424791 0.0312799981,15.4744791 0.0312799981,16.608879 L0.0312799981,32.3304781 C0.0312799981,33.465678 0.963279943,34.3976779 2.09767987,34.3976779 L24.9112785,34.3976779 C26.0448784,34.3976779 26.9776784,33.465678 26.9776784,32.3304781 L26.9776784,16.608879 C26.9368784,15.4744791 26.0448784,14.5424791 24.9112785,14.5424791 Z" id="Fill-9" fill="#FFCE44"></path>
                </g>
            </g>
        </g>
    </g>
</svg>