<?xml version="1.0" encoding="UTF-8"?>
<svg width="79px" height="117px" viewBox="0 0 79 117" version="1.1" xmlns="http://www.w3.org/2000/svg" xmlns:xlink="http://www.w3.org/1999/xlink">
    <!-- Generator: Sketch 50.2 (55047) - http://www.bohemiancoding.com/sketch -->
    <title>Group 24</title>
    <desc>Created with Sketch.</desc>
    <defs>
        <polygon id="path-1" points="0.000239999986 0.795999953 51.2026369 0.795999953 51.2026369 87.2427148 0.000239999986 87.2427148"></polygon>
        <polygon id="path-3" points="0.268670509 0.763359955 55.2463967 0.763359955 55.2463967 67.6073566 0.268670509 67.6073566"></polygon>
        <path d="M0.240799986,4.31039974 C0.240799986,4.31039974 14.7567991,21.7575987 14.9023991,21.3215987 C14.9679991,21.1223987 19.2511989,24.2895986 23.9663986,27.4567984 C28.5207983,30.5159982 33.479998,33.575198 35.4351979,33.599998 L35.4823979,33.599998 C35.9071979,33.594398 36.1815978,33.436798 36.2671978,33.093598 C37.1391978,29.6063982 35.3951979,23.3559986 35.3951979,23.3559986 C24.2039986,17.9791989 21.4855987,3.09999982 21.4855987,3.09999982 L15.6663991,1.18639993 L6.97679958,0.698399958 L0.240799986,4.31039974 Z" id="path-5"></path>
    </defs>
    <g id="Page-1" stroke="none" stroke-width="1" fill="none" fill-rule="evenodd">
        <g id="Artboard-Copy-3" transform="translate(-846.000000, -816.000000)">
            <g id="Group-24" transform="translate(846.000000, 815.000000)">
                <g id="Group-15" transform="translate(0.800002, 0.700004)">
                    <g id="Group-3">
                        <mask id="mask-2" fill="white">
                            <use xlink:href="#path-1"></use>
                        </mask>
                        <g id="Clip-2"></g>
                        <path d="M49.519437,87.2427148 L1.6842399,87.2427148 C0.753839955,87.2427148 0.000239999986,86.4891148 0.000239999986,85.5587149 L0.000239999986,2.47951985 C0.000239999986,1.54991991 0.753839955,0.795519953 1.6842399,0.795519953 L49.519437,0.795519953 C50.449037,0.795519953 51.2026369,1.54991991 51.2026369,2.47951985 L51.2026369,85.5587149 C51.2026369,86.4891148 50.449037,87.2427148 49.519437,87.2427148" id="Fill-1" fill="#5EC6CA" mask="url(#mask-2)"></path>
                    </g>
                    <path d="M45.5717573,82.1263151 L5.63175966,82.1263151 C4.70135972,82.1263151 3.94775976,81.3727151 3.94775976,80.4423152 L3.94775976,9.18631945 C3.94775976,8.25591951 4.70135972,7.50151955 5.63175966,7.50151955 L45.5717573,7.50151955 C46.5013572,7.50151955 47.2549572,8.25591951 47.2549572,9.18631945 L47.2549572,80.4423152 C47.2549572,81.3727151 46.5013572,82.1263151 45.5717573,82.1263151" id="Fill-4" fill="#07B4B0"></path>
                    <path d="M30.9694382,73.2477556 C30.9694382,75.6717555 29.0046383,77.6373554 26.5806384,77.6373554 C24.1558386,77.6373554 22.1910387,75.6717555 22.1910387,73.2477556 C22.1910387,70.8237558 24.1558386,68.8589559 26.5806384,68.8589559 C29.0046383,68.8589559 30.9694382,70.8237558 30.9694382,73.2477556" id="Fill-6" fill="#FFCE44"></path>
                    <g id="Group-10" transform="translate(22.399999, 48.799997)">
                        <mask id="mask-4" fill="white">
                            <use xlink:href="#path-3"></use>
                        </mask>
                        <g id="Clip-9"></g>
                        <path d="M35.1232779,29.8809582 C35.1232779,29.8809582 14.2064792,18.3193589 9.54087943,15.6753591 C2.70647984,11.8025593 0.740079956,16.229759 2.37287986,20.0865588 C3.18247981,21.9993587 4.87687971,23.7721586 7.30247956,24.3225586 C8.4000795,24.5721585 12.0888793,27.3233584 14.1544792,29.7433582 C17.252879,33.372958 19.0856789,38.2993577 19.0856789,38.2993577 L17.6216789,38.2993577 L12.3344793,38.2185577 C12.3344793,38.2185577 3.73207978,37.7817577 1.5976799,38.5441577 C0.387279977,38.9761577 -0.33031998,40.9001576 0.932079944,42.0017575 C1.89687989,42.8433574 4.20007975,43.0169574 5.0688797,42.9377574 C9.07447946,41.9721575 11.2880793,43.8273574 12.8888792,44.6193573 C13.4088792,44.8769573 14.9240791,46.1145573 15.0768791,46.6745572 C17.189679,54.3889568 27.8056783,62.8097563 27.8056783,62.8097563 L29.6352782,67.078556 C49.910477,70.1273558 55.2464767,58.9977565 55.2464767,58.9977565 C52.9600768,51.8329569 51.8928769,33.234558 51.7400769,29.1185583 C51.5872769,25.0025585 51.130477,21.8009587 46.1000773,18.1425589 C41.0688776,14.4833591 39.6968776,10.2145594 36.9520778,5.64175966 C34.208078,1.06815994 28.7200783,0.763359955 28.7200783,0.763359955 L28.4096783,29.7809582 L35.1232779,29.8809582 Z" id="Fill-8" fill="#1080C4" mask="url(#mask-4)"></path>
                    </g>
                    <path d="M28.8881583,50.160237 L24.1065586,50.160237 C23.4441586,50.160237 22.9065586,49.623437 22.9065586,48.9602371 L22.9065586,24.6154385 C22.9065586,23.9522386 23.4441586,23.4154386 24.1065586,23.4154386 L28.8881583,23.4154386 C29.5513582,23.4154386 30.0881582,23.9522386 30.0881582,24.6154385 L30.0881582,48.9602371 C30.0881582,49.623437 29.5513582,50.160237 28.8881583,50.160237" id="Fill-11" fill="#FFCE44"></path>
                    <path d="M13.1248792,39.1786377 L13.1248792,34.3970379 C13.1248792,33.733838 13.6624792,33.197038 14.3248791,33.197038 L38.6704777,33.197038 C39.3328777,33.197038 39.8704776,33.733838 39.8704776,34.3970379 L39.8704776,39.1786377 C39.8704776,39.8410376 39.3328777,40.3786376 38.6704777,40.3786376 L14.3248791,40.3786376 C13.6624792,40.3786376 13.1248792,39.8410376 13.1248792,39.1786377" id="Fill-13" fill="#FFCE44"></path>
                </g>
                <g id="Group-18" transform="translate(20.800001, 84.699998)">
                    <mask id="mask-6" fill="white">
                        <use xlink:href="#path-5"></use>
                    </mask>
                    <g id="Clip-17"></g>
                    <path d="M37.5232778,-5.31903968 C37.5232778,-5.31903968 16.606479,-16.880639 11.9408793,-19.5246388 C5.1064797,-23.3974386 3.14007981,-18.9702389 4.77287972,-15.1134391 C5.58247967,-13.2006392 7.27687957,-11.4278393 9.70247942,-10.8774394 C10.8000794,-10.6278394 14.4888791,-7.87663953 16.554479,-5.45663967 C19.6528788,-1.82703989 21.4856787,3.09935982 21.4856787,3.09935982 L20.0216788,3.09935982 L14.7344791,3.01855982 C14.7344791,3.01855982 6.13207963,2.58175985 3.99767976,3.3441598 C2.78727983,3.77615977 2.06967988,5.70015966 3.3320798,6.80175959 C4.29687974,7.64335954 6.60007961,7.81695953 7.46887955,7.73775954 C11.4744793,6.7721596 13.6880792,8.62735949 15.2888791,9.41935944 C15.8088791,9.67695942 17.324079,10.9145593 17.476879,11.4745593 C19.5896788,19.1889589 30.2056782,27.6097584 30.2056782,27.6097584 L32.0352781,31.8785581 C52.3104769,34.9273579 57.6464766,23.7977586 57.6464766,23.7977586 C55.3600767,16.632959 54.2928768,-1.96543988 54.1400768,-6.08143964 C53.9872768,-10.1974394 53.5304768,-13.3990392 48.5000771,-17.057439 C43.4688774,-20.7166388 42.0968775,-24.9854385 39.3520777,-29.5582382 C36.6080778,-34.131838 31.1200781,-34.4366379 31.1200781,-34.4366379 L30.8096782,-5.41903968 L37.5232778,-5.31903968 Z" id="Fill-16" fill="#1173A4" mask="url(#mask-6)"></path>
                </g>
            </g>
        </g>
    </g>
</svg>