<?xml version="1.0" encoding="UTF-8"?>
<svg width="105px" height="105px" viewBox="0 0 105 105" version="1.1" xmlns="http://www.w3.org/2000/svg" xmlns:xlink="http://www.w3.org/1999/xlink">
    <!-- Generator: Sketch 50.2 (55047) - http://www.bohemiancoding.com/sketch -->
    <title>Group 25</title>
    <desc>Created with Sketch.</desc>
    <defs>
        <polygon id="path-1" points="0 0.308970252 101.169462 0.308970252 101.169462 85.7680961 0 85.7680961"></polygon>
        <polygon id="path-3" points="0.658239961 0.113599993 61.7814363 0.113599993 61.7814363 25.4607985 0.658239961 25.4607985"></polygon>
        <path d="M73.6759956,0.392799977 L72.8375957,2.70079984 C72.8375957,2.70079984 65.2831961,39.8431976 45.1391973,47.8159971 C24.9935985,55.7895967 6.31839962,51.5927969 2.75119984,54.7407967 C-0.815999951,57.8879965 0.232799986,65.8623961 0.232799986,65.8623961 L6.10879964,81.5999951 L104.522394,79.9207952 L101.584794,6.89759959 L95.0799943,0.183199989" id="path-5"></path>
    </defs>
    <g id="Page-1" stroke="none" stroke-width="1" fill="none" fill-rule="evenodd">
        <g id="Artboard-Copy-3" transform="translate(-1158.000000, -816.000000)">
            <g id="Group-25" transform="translate(1158.000000, 815.000000)">
                <g id="Group-13" transform="translate(0.300003, 0.900003)">
                    <path d="M5.37223968,22.6768786 C5.37223968,22.6768786 8.85703947,20.0768788 10.0674394,19.5144788 C10.9890393,19.0864789 13.9002392,18.7152789 13.9002392,18.7152789 L82.8882351,18.7152789 L98.1258342,20.9472788 C98.1258342,20.9472788 100.764234,27.8360783 100.764234,29.8704782 C100.764234,32.3160781 100.798634,38.3456777 100.798634,38.3456777 L6.87543959,36.6336778 L5.37223968,22.6768786 Z" id="Fill-1" fill="#1080C4"></path>
                    <g id="Group-5" transform="translate(0.000000, 18.399999)">
                        <mask id="mask-2" fill="white">
                            <use xlink:href="#path-1"></use>
                        </mask>
                        <g id="Clip-4"></g>
                        <path d="M90.4511946,85.7663149 C76.5031954,85.6015149 18.7191989,84.9175149 18.7191989,84.9175149 C18.7191989,84.9175149 -0.233599986,86.7119148 0.0015999999,66.760716 C0.237599986,46.8351172 0.650399961,11.9663193 0.650399961,11.9663193 C0.650399961,11.9663193 -0.204799988,-0.000879999948 13.9007992,0.315119981 C12.4567993,0.555919967 9.79599942,1.5943199 8.4575995,3.63671978 C7.62159955,4.91191971 7.75999954,7.44951956 9.17119945,9.21351945 C10.4367994,10.7959194 17.8239989,12.1671193 27.1087984,12.2727193 C39.6695976,12.4159193 56.7023966,12.6879192 57.2863966,12.6951192 L94.3007944,13.0735192 C94.3007944,13.0735192 101.285594,12.1599193 101.167994,22.1223187 L100.955994,40.0551176 L80.2135952,39.8103176 C79.0175953,39.7959176 78.0303953,40.7607176 78.0159953,41.9559175 L77.8783954,53.5527168 C77.8647954,54.7487167 78.8295953,55.7359167 80.0247952,55.7503167 L100.767994,55.9959167 C100.621594,68.3095159 100.496794,78.9103153 100.496794,78.9103153 C100.496794,78.9103153 101.410394,85.8959149 90.4511946,85.7663149" id="Fill-3" fill="#5EC6CA" mask="url(#mask-2)"></path>
                    </g>
                    <path d="M17.6574389,24.5886385 L19.4886388,11.9942393 C19.6718388,10.7382394 20.8822388,9.90143941 22.1222387,10.1742394 L91.3814346,25.4606385 L91.3462346,28.4494383" id="Fill-6" fill="#FFCE44"></path>
                    <g id="Group-10" transform="translate(29.599998, 0.000000)">
                        <mask id="mask-4" fill="white">
                            <use xlink:href="#path-3"></use>
                        </mask>
                        <g id="Clip-9"></g>
                        <path d="M0.658239961,12.2823993 L6.7550396,1.27359992 C7.33343956,0.229599986 8.62543949,-0.181599989 9.70063942,0.33679998 L61.7814363,25.4607985" id="Fill-8" fill="#FFCE44" mask="url(#mask-4)"></path>
                    </g>
                    <path d="M100.764474,29.8706382 L100.838074,23.8858386 C101.059674,19.1850389 96.5444742,18.6874389 96.5444742,18.6874389 L77.5340754,18.6042389" id="Fill-11" fill="#5EC6CA"></path>
                </g>
                <g id="Group-16" transform="translate(1.900003, 30.500002)">
                    <mask id="mask-6" fill="white">
                        <use xlink:href="#path-5"></use>
                    </mask>
                    <g id="Clip-15"></g>
                    <path d="M88.8511947,74.5663156 C74.9031955,74.4015156 17.119199,73.7175156 17.119199,73.7175156 C17.119199,73.7175156 -1.83359989,75.5119155 -1.5983999,55.5607167 C-1.36239992,35.6351179 -0.949599943,0.766319954 -0.949599943,0.766319954 C-0.949599943,0.766319954 -1.80479989,-11.2008793 12.3007993,-10.8848794 C10.8567994,-10.6440794 8.19599951,-9.60567943 6.85759959,-7.56327955 C6.02159964,-6.28807963 6.15999963,-3.75047978 7.57119955,-1.98647988 C8.83679947,-0.404079976 16.223999,0.967119942 25.5087985,1.07271994 C38.0695977,1.21591993 55.1023967,1.48791991 55.6863967,1.49511991 L92.7007945,1.87351989 C92.7007945,1.87351989 99.6855941,0.959919943 99.5679941,10.9223193 L99.3559941,28.8551183 L78.6135953,28.6103183 C77.4175954,28.5959183 76.4303954,29.5607182 76.4159954,30.7559182 L76.2783955,42.3527175 C76.2647955,43.5487174 77.2295954,44.5359173 78.4247953,44.5503173 L99.1679941,44.7959173 C99.0215941,57.1095166 98.8967941,67.710316 98.8967941,67.710316 C98.8967941,67.710316 99.8103941,74.6959155 88.8511947,74.5663156" id="Fill-14" fill="#07B4B0" mask="url(#mask-6)"></path>
                </g>
                <g id="Group-21" transform="translate(77.899999, 58.500000)">
                    <path d="M26.3191184,3.06239982 L26.1815184,14.6591991 C26.1679184,15.8543991 25.1799185,16.819199 23.9847186,16.805599 L2.42471986,16.550399 C1.22951993,16.535999 0.264719984,15.5479991 0.278319983,14.3527991 L0.415919975,2.75599984 C0.430319974,1.56079991 1.41751992,0.595999964 2.61351984,0.610399964 L24.1727186,0.864799948 C25.3687185,0.879199948 26.3335184,1.86719989 26.3191184,3.06239982" id="Fill-17" fill="#1080C4"></path>
                    <path d="M8.52071949,4.9612797 C8.52071949,4.9612797 5.13831969,6.6524796 5.51431967,8.90687947 C5.89031965,11.1612793 6.6415196,13.2276792 9.08471946,13.4156792 C11.5271193,13.6036792 13.5935192,10.9732793 13.5935192,9.09487946 C13.5935192,7.21567957 11.7143193,4.58527973 8.52071949,4.9612797" id="Fill-19" fill="#1173A4"></path>
                </g>
            </g>
        </g>
    </g>
</svg>